<?xml version="1.0" encoding="utf-8" standalone="no"?>
<!DOCTYPE svg PUBLIC "-//W3C//DTD SVG 1.1//EN"
  "http://www.w3.org/Graphics/SVG/1.1/DTD/svg11.dtd">
<svg xmlns:xlink="http://www.w3.org/1999/xlink" width="570.276875pt" height="408.608437pt" viewBox="0 0 570.276875 408.608437" xmlns="http://www.w3.org/2000/svg" version="1.1">
 <metadata>
  <rdf:RDF xmlns:dc="http://purl.org/dc/elements/1.1/" xmlns:cc="http://creativecommons.org/ns#" xmlns:rdf="http://www.w3.org/1999/02/22-rdf-syntax-ns#">
   <cc:Work>
    <dc:type rdf:resource="http://purl.org/dc/dcmitype/StillImage"/>
    <dc:date>2024-08-08T13:59:44.309673</dc:date>
    <dc:format>image/svg+xml</dc:format>
    <dc:creator>
     <cc:Agent>
      <dc:title>Matplotlib v3.8.0, https://matplotlib.org/</dc:title>
     </cc:Agent>
    </dc:creator>
   </cc:Work>
  </rdf:RDF>
 </metadata>
 <defs>
  <style type="text/css">*{stroke-linejoin: round; stroke-linecap: butt}</style>
 </defs>
 <g id="figure_1">
  <g id="patch_1">
   <path d="M 0 408.608437 
L 570.276875 408.608437 
L 570.276875 0 
L 0 0 
z
" style="fill: #ffffff"/>
  </g>
  <g id="axes_1">
   <g id="patch_2">
    <path d="M 92.20875 339.84 
L 538.60875 339.84 
L 538.60875 7.2 
L 92.20875 7.2 
z
" style="fill: #ffffff"/>
   </g>
   <g id="matplotlib.axis_1">
    <g id="xtick_1">
     <g id="line2d_1">
      <defs>
       <path id="mef7d9c9639" d="M 0 0 
L 0 12 
" style="stroke: #262626; stroke-width: 2.5"/>
      </defs>
      <g>
       <use xlink:href="#mef7d9c9639" x="92.20875" y="339.84" style="fill: #262626; stroke: #262626; stroke-width: 2.5"/>
      </g>
     </g>
     <g id="text_1">
      <!-- 0 -->
      <g style="fill: #262626" transform="translate(86.091719 371.087187) scale(0.22 -0.22)">
       <defs>
        <path id="ArialMT-30" d="M 266 2259 
Q 266 3072 433 3567 
Q 600 4063 929 4331 
Q 1259 4600 1759 4600 
Q 2128 4600 2406 4451 
Q 2684 4303 2865 4023 
Q 3047 3744 3150 3342 
Q 3253 2941 3253 2259 
Q 3253 1453 3087 958 
Q 2922 463 2592 192 
Q 2263 -78 1759 -78 
Q 1097 -78 719 397 
Q 266 969 266 2259 
z
M 844 2259 
Q 844 1131 1108 757 
Q 1372 384 1759 384 
Q 2147 384 2411 759 
Q 2675 1134 2675 2259 
Q 2675 3391 2411 3762 
Q 2147 4134 1753 4134 
Q 1366 4134 1134 3806 
Q 844 3388 844 2259 
z
" transform="scale(0.015625)"/>
       </defs>
       <use xlink:href="#ArialMT-30"/>
      </g>
     </g>
    </g>
    <g id="xtick_2">
     <g id="line2d_2">
      <g>
       <use xlink:href="#mef7d9c9639" x="181.48875" y="339.84" style="fill: #262626; stroke: #262626; stroke-width: 2.5"/>
      </g>
     </g>
     <g id="text_2">
      <!-- 200 -->
      <g style="fill: #262626" transform="translate(163.137656 371.087187) scale(0.22 -0.22)">
       <defs>
        <path id="ArialMT-32" d="M 3222 541 
L 3222 0 
L 194 0 
Q 188 203 259 391 
Q 375 700 629 1000 
Q 884 1300 1366 1694 
Q 2113 2306 2375 2664 
Q 2638 3022 2638 3341 
Q 2638 3675 2398 3904 
Q 2159 4134 1775 4134 
Q 1369 4134 1125 3890 
Q 881 3647 878 3216 
L 300 3275 
Q 359 3922 746 4261 
Q 1134 4600 1788 4600 
Q 2447 4600 2831 4234 
Q 3216 3869 3216 3328 
Q 3216 3053 3103 2787 
Q 2991 2522 2730 2228 
Q 2469 1934 1863 1422 
Q 1356 997 1212 845 
Q 1069 694 975 541 
L 3222 541 
z
" transform="scale(0.015625)"/>
       </defs>
       <use xlink:href="#ArialMT-32"/>
       <use xlink:href="#ArialMT-30" x="55.615234"/>
       <use xlink:href="#ArialMT-30" x="111.230469"/>
      </g>
     </g>
    </g>
    <g id="xtick_3">
     <g id="line2d_3">
      <g>
       <use xlink:href="#mef7d9c9639" x="270.76875" y="339.84" style="fill: #262626; stroke: #262626; stroke-width: 2.5"/>
      </g>
     </g>
     <g id="text_3">
      <!-- 400 -->
      <g style="fill: #262626" transform="translate(252.417656 371.087187) scale(0.22 -0.22)">
       <defs>
        <path id="ArialMT-34" d="M 2069 0 
L 2069 1097 
L 81 1097 
L 81 1613 
L 2172 4581 
L 2631 4581 
L 2631 1613 
L 3250 1613 
L 3250 1097 
L 2631 1097 
L 2631 0 
L 2069 0 
z
M 2069 1613 
L 2069 3678 
L 634 1613 
L 2069 1613 
z
" transform="scale(0.015625)"/>
       </defs>
       <use xlink:href="#ArialMT-34"/>
       <use xlink:href="#ArialMT-30" x="55.615234"/>
       <use xlink:href="#ArialMT-30" x="111.230469"/>
      </g>
     </g>
    </g>
    <g id="xtick_4">
     <g id="line2d_4">
      <g>
       <use xlink:href="#mef7d9c9639" x="360.04875" y="339.84" style="fill: #262626; stroke: #262626; stroke-width: 2.5"/>
      </g>
     </g>
     <g id="text_4">
      <!-- 600 -->
      <g style="fill: #262626" transform="translate(341.697656 371.087187) scale(0.22 -0.22)">
       <defs>
        <path id="ArialMT-36" d="M 3184 3459 
L 2625 3416 
Q 2550 3747 2413 3897 
Q 2184 4138 1850 4138 
Q 1581 4138 1378 3988 
Q 1113 3794 959 3422 
Q 806 3050 800 2363 
Q 1003 2672 1297 2822 
Q 1591 2972 1913 2972 
Q 2475 2972 2870 2558 
Q 3266 2144 3266 1488 
Q 3266 1056 3080 686 
Q 2894 316 2569 119 
Q 2244 -78 1831 -78 
Q 1128 -78 684 439 
Q 241 956 241 2144 
Q 241 3472 731 4075 
Q 1159 4600 1884 4600 
Q 2425 4600 2770 4297 
Q 3116 3994 3184 3459 
z
M 888 1484 
Q 888 1194 1011 928 
Q 1134 663 1356 523 
Q 1578 384 1822 384 
Q 2178 384 2434 671 
Q 2691 959 2691 1453 
Q 2691 1928 2437 2201 
Q 2184 2475 1800 2475 
Q 1419 2475 1153 2201 
Q 888 1928 888 1484 
z
" transform="scale(0.015625)"/>
       </defs>
       <use xlink:href="#ArialMT-36"/>
       <use xlink:href="#ArialMT-30" x="55.615234"/>
       <use xlink:href="#ArialMT-30" x="111.230469"/>
      </g>
     </g>
    </g>
    <g id="xtick_5">
     <g id="line2d_5">
      <g>
       <use xlink:href="#mef7d9c9639" x="449.32875" y="339.84" style="fill: #262626; stroke: #262626; stroke-width: 2.5"/>
      </g>
     </g>
     <g id="text_5">
      <!-- 800 -->
      <g style="fill: #262626" transform="translate(430.977656 371.087187) scale(0.22 -0.22)">
       <defs>
        <path id="ArialMT-38" d="M 1131 2484 
Q 781 2613 612 2850 
Q 444 3088 444 3419 
Q 444 3919 803 4259 
Q 1163 4600 1759 4600 
Q 2359 4600 2725 4251 
Q 3091 3903 3091 3403 
Q 3091 3084 2923 2848 
Q 2756 2613 2416 2484 
Q 2838 2347 3058 2040 
Q 3278 1734 3278 1309 
Q 3278 722 2862 322 
Q 2447 -78 1769 -78 
Q 1091 -78 675 323 
Q 259 725 259 1325 
Q 259 1772 486 2073 
Q 713 2375 1131 2484 
z
M 1019 3438 
Q 1019 3113 1228 2906 
Q 1438 2700 1772 2700 
Q 2097 2700 2305 2904 
Q 2513 3109 2513 3406 
Q 2513 3716 2298 3927 
Q 2084 4138 1766 4138 
Q 1444 4138 1231 3931 
Q 1019 3725 1019 3438 
z
M 838 1322 
Q 838 1081 952 856 
Q 1066 631 1291 507 
Q 1516 384 1775 384 
Q 2178 384 2440 643 
Q 2703 903 2703 1303 
Q 2703 1709 2433 1975 
Q 2163 2241 1756 2241 
Q 1359 2241 1098 1978 
Q 838 1716 838 1322 
z
" transform="scale(0.015625)"/>
       </defs>
       <use xlink:href="#ArialMT-38"/>
       <use xlink:href="#ArialMT-30" x="55.615234"/>
       <use xlink:href="#ArialMT-30" x="111.230469"/>
      </g>
     </g>
    </g>
    <g id="xtick_6">
     <g id="line2d_6">
      <g>
       <use xlink:href="#mef7d9c9639" x="538.60875" y="339.84" style="fill: #262626; stroke: #262626; stroke-width: 2.5"/>
      </g>
     </g>
     <g id="text_6">
      <!-- 1000 -->
      <g style="fill: #262626" transform="translate(514.140625 371.087187) scale(0.22 -0.22)">
       <defs>
        <path id="ArialMT-31" d="M 2384 0 
L 1822 0 
L 1822 3584 
Q 1619 3391 1289 3197 
Q 959 3003 697 2906 
L 697 3450 
Q 1169 3672 1522 3987 
Q 1875 4303 2022 4600 
L 2384 4600 
L 2384 0 
z
" transform="scale(0.015625)"/>
       </defs>
       <use xlink:href="#ArialMT-31"/>
       <use xlink:href="#ArialMT-30" x="55.615234"/>
       <use xlink:href="#ArialMT-30" x="111.230469"/>
       <use xlink:href="#ArialMT-30" x="166.845703"/>
      </g>
     </g>
    </g>
    <g id="text_7">
     <!-- Epoch -->
     <g style="fill: #262626" transform="translate(281.385 396.638437) scale(0.24 -0.24)">
      <defs>
       <path id="ArialMT-45" d="M 506 0 
L 506 4581 
L 3819 4581 
L 3819 4041 
L 1113 4041 
L 1113 2638 
L 3647 2638 
L 3647 2100 
L 1113 2100 
L 1113 541 
L 3925 541 
L 3925 0 
L 506 0 
z
" transform="scale(0.015625)"/>
       <path id="ArialMT-70" d="M 422 -1272 
L 422 3319 
L 934 3319 
L 934 2888 
Q 1116 3141 1344 3267 
Q 1572 3394 1897 3394 
Q 2322 3394 2647 3175 
Q 2972 2956 3137 2557 
Q 3303 2159 3303 1684 
Q 3303 1175 3120 767 
Q 2938 359 2589 142 
Q 2241 -75 1856 -75 
Q 1575 -75 1351 44 
Q 1128 163 984 344 
L 984 -1272 
L 422 -1272 
z
M 931 1641 
Q 931 1000 1190 694 
Q 1450 388 1819 388 
Q 2194 388 2461 705 
Q 2728 1022 2728 1688 
Q 2728 2322 2467 2637 
Q 2206 2953 1844 2953 
Q 1484 2953 1207 2617 
Q 931 2281 931 1641 
z
" transform="scale(0.015625)"/>
       <path id="ArialMT-6f" d="M 213 1659 
Q 213 2581 725 3025 
Q 1153 3394 1769 3394 
Q 2453 3394 2887 2945 
Q 3322 2497 3322 1706 
Q 3322 1066 3130 698 
Q 2938 331 2570 128 
Q 2203 -75 1769 -75 
Q 1072 -75 642 372 
Q 213 819 213 1659 
z
M 791 1659 
Q 791 1022 1069 705 
Q 1347 388 1769 388 
Q 2188 388 2466 706 
Q 2744 1025 2744 1678 
Q 2744 2294 2464 2611 
Q 2184 2928 1769 2928 
Q 1347 2928 1069 2612 
Q 791 2297 791 1659 
z
" transform="scale(0.015625)"/>
       <path id="ArialMT-63" d="M 2588 1216 
L 3141 1144 
Q 3050 572 2676 248 
Q 2303 -75 1759 -75 
Q 1078 -75 664 370 
Q 250 816 250 1647 
Q 250 2184 428 2587 
Q 606 2991 970 3192 
Q 1334 3394 1763 3394 
Q 2303 3394 2647 3120 
Q 2991 2847 3088 2344 
L 2541 2259 
Q 2463 2594 2264 2762 
Q 2066 2931 1784 2931 
Q 1359 2931 1093 2626 
Q 828 2322 828 1663 
Q 828 994 1084 691 
Q 1341 388 1753 388 
Q 2084 388 2306 591 
Q 2528 794 2588 1216 
z
" transform="scale(0.015625)"/>
       <path id="ArialMT-68" d="M 422 0 
L 422 4581 
L 984 4581 
L 984 2938 
Q 1378 3394 1978 3394 
Q 2347 3394 2619 3248 
Q 2891 3103 3008 2847 
Q 3125 2591 3125 2103 
L 3125 0 
L 2563 0 
L 2563 2103 
Q 2563 2525 2380 2717 
Q 2197 2909 1863 2909 
Q 1613 2909 1392 2779 
Q 1172 2650 1078 2428 
Q 984 2206 984 1816 
L 984 0 
L 422 0 
z
" transform="scale(0.015625)"/>
      </defs>
      <use xlink:href="#ArialMT-45"/>
      <use xlink:href="#ArialMT-70" x="66.699219"/>
      <use xlink:href="#ArialMT-6f" x="122.314453"/>
      <use xlink:href="#ArialMT-63" x="177.929688"/>
      <use xlink:href="#ArialMT-68" x="227.929688"/>
     </g>
    </g>
   </g>
   <g id="matplotlib.axis_2">
    <g id="ytick_1">
     <g id="line2d_7">
      <defs>
       <path id="m434bb67b11" d="M 0 0 
L -12 0 
" style="stroke: #262626; stroke-width: 2.5"/>
      </defs>
      <g>
       <use xlink:href="#m434bb67b11" x="92.20875" y="240.492837" style="fill: #262626; stroke: #262626; stroke-width: 2.5"/>
      </g>
     </g>
     <g id="text_8">
      <!-- $\mathdefault{10^{-3}}$ -->
      <g style="fill: #262626" transform="translate(33.14875 251.836587) scale(0.22 -0.22)">
       <defs>
        <path id="ArialMT-2212" d="M 3381 1997 
L 356 1997 
L 356 2522 
L 3381 2522 
L 3381 1997 
z
" transform="scale(0.015625)"/>
        <path id="ArialMT-33" d="M 269 1209 
L 831 1284 
Q 928 806 1161 595 
Q 1394 384 1728 384 
Q 2125 384 2398 659 
Q 2672 934 2672 1341 
Q 2672 1728 2419 1979 
Q 2166 2231 1775 2231 
Q 1616 2231 1378 2169 
L 1441 2663 
Q 1497 2656 1531 2656 
Q 1891 2656 2178 2843 
Q 2466 3031 2466 3422 
Q 2466 3731 2256 3934 
Q 2047 4138 1716 4138 
Q 1388 4138 1169 3931 
Q 950 3725 888 3313 
L 325 3413 
Q 428 3978 793 4289 
Q 1159 4600 1703 4600 
Q 2078 4600 2393 4439 
Q 2709 4278 2876 4000 
Q 3044 3722 3044 3409 
Q 3044 3113 2884 2869 
Q 2725 2625 2413 2481 
Q 2819 2388 3044 2092 
Q 3269 1797 3269 1353 
Q 3269 753 2831 336 
Q 2394 -81 1725 -81 
Q 1122 -81 723 278 
Q 325 638 269 1209 
z
" transform="scale(0.015625)"/>
       </defs>
       <use xlink:href="#ArialMT-31" transform="translate(0 0.99375)"/>
       <use xlink:href="#ArialMT-30" transform="translate(55.615234 0.99375)"/>
       <use xlink:href="#ArialMT-2212" transform="translate(112.972813 70.6875) scale(0.7)"/>
       <use xlink:href="#ArialMT-33" transform="translate(153.851719 70.6875) scale(0.7)"/>
      </g>
     </g>
    </g>
    <g id="ytick_2">
     <g id="line2d_8">
      <g>
       <use xlink:href="#m434bb67b11" x="92.20875" y="79.145822" style="fill: #262626; stroke: #262626; stroke-width: 2.5"/>
      </g>
     </g>
     <g id="text_9">
      <!-- $\mathdefault{10^{-2}}$ -->
      <g style="fill: #262626" transform="translate(33.14875 90.489572) scale(0.22 -0.22)">
       <use xlink:href="#ArialMT-31" transform="translate(0 0.99375)"/>
       <use xlink:href="#ArialMT-30" transform="translate(55.615234 0.99375)"/>
       <use xlink:href="#ArialMT-2212" transform="translate(112.972813 70.6875) scale(0.7)"/>
       <use xlink:href="#ArialMT-32" transform="translate(153.851719 70.6875) scale(0.7)"/>
      </g>
     </g>
    </g>
    <g id="ytick_3">
     <g id="line2d_9">
      <defs>
       <path id="m5dbc13de00" d="M 0 0 
L -8 0 
" style="stroke: #262626; stroke-width: 2"/>
      </defs>
      <g>
       <use xlink:href="#m5dbc13de00" x="92.20875" y="324.857762" style="fill: #262626; stroke: #262626; stroke-width: 2"/>
      </g>
     </g>
    </g>
    <g id="ytick_4">
     <g id="line2d_10">
      <g>
       <use xlink:href="#m5dbc13de00" x="92.20875" y="304.69927" style="fill: #262626; stroke: #262626; stroke-width: 2"/>
      </g>
     </g>
    </g>
    <g id="ytick_5">
     <g id="line2d_11">
      <g>
       <use xlink:href="#m5dbc13de00" x="92.20875" y="289.063129" style="fill: #262626; stroke: #262626; stroke-width: 2"/>
      </g>
     </g>
    </g>
    <g id="ytick_6">
     <g id="line2d_12">
      <g>
       <use xlink:href="#m5dbc13de00" x="92.20875" y="276.287471" style="fill: #262626; stroke: #262626; stroke-width: 2"/>
      </g>
     </g>
    </g>
    <g id="ytick_7">
     <g id="line2d_13">
      <g>
       <use xlink:href="#m5dbc13de00" x="92.20875" y="265.485806" style="fill: #262626; stroke: #262626; stroke-width: 2"/>
      </g>
     </g>
    </g>
    <g id="ytick_8">
     <g id="line2d_14">
      <g>
       <use xlink:href="#m5dbc13de00" x="92.20875" y="256.128979" style="fill: #262626; stroke: #262626; stroke-width: 2"/>
      </g>
     </g>
    </g>
    <g id="ytick_9">
     <g id="line2d_15">
      <g>
       <use xlink:href="#m5dbc13de00" x="92.20875" y="247.875672" style="fill: #262626; stroke: #262626; stroke-width: 2"/>
      </g>
     </g>
    </g>
    <g id="ytick_10">
     <g id="line2d_16">
      <g>
       <use xlink:href="#m5dbc13de00" x="92.20875" y="191.922546" style="fill: #262626; stroke: #262626; stroke-width: 2"/>
      </g>
     </g>
    </g>
    <g id="ytick_11">
     <g id="line2d_17">
      <g>
       <use xlink:href="#m5dbc13de00" x="92.20875" y="163.510747" style="fill: #262626; stroke: #262626; stroke-width: 2"/>
      </g>
     </g>
    </g>
    <g id="ytick_12">
     <g id="line2d_18">
      <g>
       <use xlink:href="#m5dbc13de00" x="92.20875" y="143.352255" style="fill: #262626; stroke: #262626; stroke-width: 2"/>
      </g>
     </g>
    </g>
    <g id="ytick_13">
     <g id="line2d_19">
      <g>
       <use xlink:href="#m5dbc13de00" x="92.20875" y="127.716113" style="fill: #262626; stroke: #262626; stroke-width: 2"/>
      </g>
     </g>
    </g>
    <g id="ytick_14">
     <g id="line2d_20">
      <g>
       <use xlink:href="#m5dbc13de00" x="92.20875" y="114.940455" style="fill: #262626; stroke: #262626; stroke-width: 2"/>
      </g>
     </g>
    </g>
    <g id="ytick_15">
     <g id="line2d_21">
      <g>
       <use xlink:href="#m5dbc13de00" x="92.20875" y="104.138791" style="fill: #262626; stroke: #262626; stroke-width: 2"/>
      </g>
     </g>
    </g>
    <g id="ytick_16">
     <g id="line2d_22">
      <g>
       <use xlink:href="#m5dbc13de00" x="92.20875" y="94.781963" style="fill: #262626; stroke: #262626; stroke-width: 2"/>
      </g>
     </g>
    </g>
    <g id="ytick_17">
     <g id="line2d_23">
      <g>
       <use xlink:href="#m5dbc13de00" x="92.20875" y="86.528656" style="fill: #262626; stroke: #262626; stroke-width: 2"/>
      </g>
     </g>
    </g>
    <g id="ytick_18">
     <g id="line2d_24">
      <g>
       <use xlink:href="#m5dbc13de00" x="92.20875" y="30.57553" style="fill: #262626; stroke: #262626; stroke-width: 2"/>
      </g>
     </g>
    </g>
    <g id="text_10">
     <!-- Loss -->
     <g style="fill: #262626" transform="translate(24.37875 198.86625) rotate(-90) scale(0.24 -0.24)">
      <defs>
       <path id="ArialMT-4c" d="M 469 0 
L 469 4581 
L 1075 4581 
L 1075 541 
L 3331 541 
L 3331 0 
L 469 0 
z
" transform="scale(0.015625)"/>
       <path id="ArialMT-73" d="M 197 991 
L 753 1078 
Q 800 744 1014 566 
Q 1228 388 1613 388 
Q 2000 388 2187 545 
Q 2375 703 2375 916 
Q 2375 1106 2209 1216 
Q 2094 1291 1634 1406 
Q 1016 1563 777 1677 
Q 538 1791 414 1992 
Q 291 2194 291 2438 
Q 291 2659 392 2848 
Q 494 3038 669 3163 
Q 800 3259 1026 3326 
Q 1253 3394 1513 3394 
Q 1903 3394 2198 3281 
Q 2494 3169 2634 2976 
Q 2775 2784 2828 2463 
L 2278 2388 
Q 2241 2644 2061 2787 
Q 1881 2931 1553 2931 
Q 1166 2931 1000 2803 
Q 834 2675 834 2503 
Q 834 2394 903 2306 
Q 972 2216 1119 2156 
Q 1203 2125 1616 2013 
Q 2213 1853 2448 1751 
Q 2684 1650 2818 1456 
Q 2953 1263 2953 975 
Q 2953 694 2789 445 
Q 2625 197 2315 61 
Q 2006 -75 1616 -75 
Q 969 -75 630 194 
Q 291 463 197 991 
z
" transform="scale(0.015625)"/>
      </defs>
      <use xlink:href="#ArialMT-4c"/>
      <use xlink:href="#ArialMT-6f" x="55.615234"/>
      <use xlink:href="#ArialMT-73" x="111.230469"/>
      <use xlink:href="#ArialMT-73" x="161.230469"/>
     </g>
    </g>
   </g>
   <g id="line2d_25">
    <path d="M 92.65515 13.878586 
L 93.10155 114.867832 
L 93.54795 155.170475 
L 93.99435 181.354572 
L 94.88715 184.040488 
L 95.77995 193.894375 
L 96.22635 196.525979 
L 96.67275 204.143808 
L 97.11915 207.379459 
L 97.56555 206.612099 
L 98.01195 219.709474 
L 98.45835 222.877928 
L 99.35115 230.221849 
L 99.79755 231.737447 
L 100.24395 235.736929 
L 100.69035 236.269955 
L 102.47595 245.578153 
L 102.92235 242.810243 
L 103.36875 249.872264 
L 103.81515 249.718318 
L 104.26155 252.238075 
L 104.70795 251.758632 
L 105.15435 254.08667 
L 105.60075 254.52669 
L 106.93995 256.714876 
L 107.38635 256.22699 
L 107.83275 258.936081 
L 108.27915 258.230052 
L 108.72555 260.102309 
L 109.17195 260.311638 
L 109.61835 260.336932 
L 110.06475 261.499811 
L 110.51115 262.067555 
L 110.95755 263.732757 
L 111.40395 262.696351 
L 111.85035 264.979418 
L 112.29675 264.682314 
L 112.74315 265.094625 
L 113.18955 265.81629 
L 113.63595 266.879646 
L 114.08235 267.490587 
L 114.52875 266.683175 
L 114.97515 259.532476 
L 115.42155 266.709276 
L 115.86795 268.524212 
L 116.31435 263.906602 
L 116.76075 271.229585 
L 117.20715 270.751679 
L 117.65355 269.826595 
L 118.09995 273.437947 
L 118.54635 272.120899 
L 118.99275 273.020457 
L 119.43915 271.840944 
L 119.88555 275.328832 
L 120.33195 274.082909 
L 120.77835 273.847931 
L 121.22475 276.124776 
L 122.11755 273.561212 
L 122.56395 271.095737 
L 123.01035 278.379844 
L 123.45675 274.100063 
L 123.90315 275.474856 
L 124.34955 278.51267 
L 124.79595 278.891677 
L 125.24235 276.553237 
L 125.68875 279.225529 
L 126.13515 277.76757 
L 126.58155 280.690191 
L 127.02795 280.028632 
L 127.47435 273.037274 
L 127.92075 280.734234 
L 128.36715 280.596473 
L 128.81355 280.631321 
L 129.25995 282.314482 
L 129.70635 279.710736 
L 130.15275 280.742943 
L 130.59915 283.211143 
L 131.04555 283.571234 
L 131.49195 279.105432 
L 131.93835 284.651279 
L 132.83115 282.251548 
L 134.17035 284.546615 
L 134.61675 286.653266 
L 135.06315 275.74652 
L 135.50955 286.147421 
L 135.95595 286.933989 
L 136.40235 285.830469 
L 136.84875 285.166874 
L 137.29515 285.633501 
L 137.74155 286.726731 
L 138.18795 277.881448 
L 138.63435 287.635985 
L 139.08075 286.710907 
L 139.97355 288.298431 
L 140.41995 283.894796 
L 140.86635 288.076678 
L 141.31275 289.002783 
L 141.75915 287.78685 
L 142.20555 289.875791 
L 142.65195 287.726044 
L 143.54475 289.717913 
L 143.99115 287.524351 
L 144.43755 270.480858 
L 144.88395 289.903312 
L 145.33035 290.421996 
L 145.77675 289.96444 
L 146.22315 291.076246 
L 146.66955 292.629439 
L 147.11595 291.55754 
L 147.56235 273.496027 
L 148.00875 291.453298 
L 148.45515 292.765955 
L 148.90155 287.865984 
L 149.79435 293.543809 
L 150.24075 292.339974 
L 150.68715 291.875164 
L 151.13355 290.170139 
L 152.02635 291.936385 
L 152.47275 293.747185 
L 152.91915 291.940444 
L 153.36555 291.39487 
L 153.81195 256.455802 
L 154.25835 289.814519 
L 154.70475 293.320138 
L 155.59755 294.353166 
L 156.04395 294.532536 
L 156.49035 295.168014 
L 156.93675 294.806328 
L 157.38315 294.64292 
L 158.27595 290.479943 
L 159.16875 293.057859 
L 159.61515 277.693375 
L 160.06155 294.093767 
L 160.50795 296.315452 
L 160.95435 296.532936 
L 161.40075 296.161493 
L 161.84715 295.559635 
L 162.29355 294.649349 
L 162.73995 293.242233 
L 163.18635 296.718388 
L 163.63275 297.065753 
L 164.07915 294.340951 
L 164.52555 294.694596 
L 164.97195 296.927626 
L 165.41835 298.564522 
L 165.86475 297.40939 
L 166.31115 293.953902 
L 166.75755 297.124131 
L 167.20395 297.469778 
L 167.65035 287.523366 
L 168.09675 294.670273 
L 168.54315 296.700219 
L 168.98955 297.596816 
L 169.43595 297.26837 
L 169.88235 297.50842 
L 170.77515 300.553394 
L 171.22155 300.869961 
L 171.66795 300.377773 
L 172.11435 297.58638 
L 172.56075 295.873482 
L 173.00715 294.681204 
L 173.45355 294.874584 
L 173.89995 295.671151 
L 174.34635 297.556125 
L 174.79275 297.094915 
L 175.23915 297.487359 
L 176.13195 298.793322 
L 176.57835 298.664971 
L 177.02475 298.865783 
L 177.47115 299.495013 
L 177.91755 299.537452 
L 178.36395 300.107213 
L 178.81035 299.804241 
L 179.70315 303.325973 
L 180.14955 304.214798 
L 180.59595 304.708308 
L 181.48875 300.895947 
L 181.93515 302.775642 
L 182.38155 298.854094 
L 182.82795 299.834417 
L 183.27435 298.466441 
L 183.72075 299.634309 
L 184.16715 298.760383 
L 184.61355 294.580528 
L 185.05995 296.013069 
L 185.50635 298.049874 
L 185.95275 301.175439 
L 186.39915 302.237936 
L 186.84555 302.880762 
L 187.29195 303.781333 
L 187.73835 305.085637 
L 188.18475 296.027191 
L 189.07755 304.932577 
L 189.52395 306.144287 
L 189.97035 306.909917 
L 190.86315 307.890427 
L 191.30955 308.239582 
L 191.75595 306.481574 
L 192.64875 298.652278 
L 193.09515 303.303914 
L 193.54155 304.591836 
L 193.98795 305.237998 
L 194.88075 304.574377 
L 195.77355 306.228428 
L 196.21995 305.142974 
L 196.66635 303.210022 
L 197.11275 298.379564 
L 197.55915 286.626274 
L 198.00555 298.482564 
L 198.45195 302.269196 
L 198.89835 303.917001 
L 199.34475 303.392322 
L 199.79115 302.275451 
L 200.23755 302.685405 
L 200.68395 302.033845 
L 201.13035 300.779713 
L 201.57675 300.706504 
L 202.02315 302.365692 
L 202.91595 307.206585 
L 204.25515 310.912873 
L 205.14795 312.454273 
L 205.59435 312.618944 
L 206.04075 310.936219 
L 206.93355 312.716843 
L 207.37995 313.230853 
L 207.82635 310.41393 
L 208.27275 305.774189 
L 208.71915 308.345307 
L 209.16555 306.98152 
L 209.61195 306.987396 
L 210.05835 307.57239 
L 210.50475 301.871172 
L 210.95115 306.153907 
L 211.39755 302.427876 
L 211.84395 303.024639 
L 212.29035 306.182722 
L 212.73675 307.169486 
L 213.18315 306.308726 
L 214.52235 311.387923 
L 214.96875 311.895761 
L 215.41515 311.938363 
L 216.30795 308.75858 
L 216.75435 304.858037 
L 217.20075 303.016478 
L 217.64715 299.773664 
L 218.53995 307.817396 
L 218.98635 308.669383 
L 219.43275 308.87821 
L 219.87915 309.883894 
L 220.32555 310.436568 
L 220.77195 309.55411 
L 221.21835 305.24795 
L 222.11115 300.829312 
L 222.55755 299.950449 
L 223.00395 299.424569 
L 223.45035 308.245487 
L 223.89675 307.510659 
L 224.34315 305.600741 
L 224.78955 301.483273 
L 225.23595 303.677854 
L 225.68235 310.224758 
L 226.12875 313.810491 
L 226.57515 315.651151 
L 227.02155 316.495248 
L 227.91435 317.55768 
L 228.80715 318.182177 
L 229.25355 318.23333 
L 229.69995 318.119504 
L 230.14635 317.732128 
L 231.03915 315.866689 
L 231.48555 313.967117 
L 231.93195 309.433162 
L 232.37835 308.247888 
L 232.82475 312.363451 
L 233.27115 314.148212 
L 233.71755 310.696686 
L 234.16395 305.331422 
L 234.61035 313.201969 
L 235.05675 314.594793 
L 235.50315 311.940108 
L 235.94955 307.155077 
L 236.39595 305.731922 
L 237.28875 308.73601 
L 237.73515 309.554174 
L 238.18155 308.615874 
L 238.62795 307.215282 
L 239.07435 307.243152 
L 239.52075 305.787829 
L 239.96715 302.521679 
L 240.41355 308.884358 
L 240.85995 308.666709 
L 241.75275 304.916581 
L 242.64555 307.161485 
L 243.53835 312.08831 
L 244.43115 313.144799 
L 244.87755 313.084991 
L 245.32395 313.967415 
L 245.77035 315.704876 
L 246.21675 316.566784 
L 246.66315 317.162551 
L 247.10955 317.514851 
L 248.00235 316.865666 
L 248.44875 315.899076 
L 248.89515 313.579205 
L 249.34155 306.907635 
L 249.78795 308.567359 
L 250.23435 313.877086 
L 250.68075 313.800877 
L 251.12715 304.8063 
L 251.57355 306.065035 
L 252.01995 309.964884 
L 252.46635 310.338026 
L 252.91275 309.15964 
L 253.80555 303.630992 
L 254.25195 306.109641 
L 254.69835 311.301288 
L 255.14475 311.879804 
L 255.59115 311.097948 
L 256.03755 310.906552 
L 256.48395 312.022086 
L 256.93035 312.19245 
L 257.37675 312.933939 
L 257.82315 314.02278 
L 258.26955 314.553071 
L 258.71595 313.569571 
L 259.60875 301.550713 
L 260.50155 312.817067 
L 261.84075 317.443694 
L 262.28715 317.984536 
L 263.17995 318.482113 
L 263.62635 318.869345 
L 264.07275 319.579182 
L 264.51915 319.830341 
L 264.96555 319.534552 
L 266.30475 317.000268 
L 266.75115 317.476413 
L 267.19755 315.431538 
L 267.64395 310.072089 
L 268.09035 302.927796 
L 268.53675 311.694216 
L 268.98315 314.725637 
L 269.42955 315.350623 
L 269.87595 312.863605 
L 270.32235 308.456757 
L 271.21515 307.351079 
L 271.66155 305.925243 
L 272.55435 315.703374 
L 273.00075 317.835729 
L 273.44715 317.839714 
L 273.89355 316.635013 
L 274.33995 316.365539 
L 274.78635 316.371475 
L 275.23275 315.655163 
L 275.67915 315.952682 
L 276.12555 317.867172 
L 276.57195 318.743775 
L 277.01835 318.053021 
L 277.46475 316.647059 
L 277.91115 316.56196 
L 278.80395 310.977111 
L 279.69675 301.578074 
L 280.14315 291.820664 
L 280.58955 305.216125 
L 281.03595 311.531036 
L 281.48235 313.216948 
L 281.92875 312.79071 
L 282.82155 315.024721 
L 283.26795 314.62714 
L 283.71435 313.444126 
L 284.60715 312.827436 
L 285.05355 311.433001 
L 285.49995 308.269715 
L 285.94635 304.186384 
L 286.39275 304.474792 
L 286.83915 306.942154 
L 287.73195 315.220285 
L 288.17835 317.207376 
L 288.62475 317.632959 
L 289.51755 316.947383 
L 289.96395 317.196677 
L 290.41035 317.635288 
L 290.85675 317.89048 
L 292.19595 317.234473 
L 292.64235 317.246455 
L 293.53515 315.754234 
L 293.98155 314.182653 
L 294.42795 313.59686 
L 294.87435 303.126635 
L 295.32075 302.794532 
L 295.76715 305.248316 
L 296.21355 309.940319 
L 296.65995 313.243504 
L 297.10635 314.159786 
L 297.55275 314.662017 
L 297.99915 314.721131 
L 298.44555 315.699862 
L 298.89195 316.219989 
L 299.78475 315.791556 
L 300.23115 316.243891 
L 300.67755 317.15445 
L 301.12395 317.644694 
L 301.57035 317.833912 
L 302.01675 317.218376 
L 302.46315 316.403749 
L 302.90955 314.863422 
L 303.35595 308.842471 
L 303.80235 307.960252 
L 304.24875 312.438252 
L 304.69515 312.070335 
L 305.14155 309.01718 
L 305.58795 304.145971 
L 306.03435 305.663704 
L 306.48075 302.914393 
L 306.92715 312.254411 
L 307.37355 312.786063 
L 307.81995 312.694041 
L 308.71275 315.69523 
L 309.15915 316.179911 
L 310.05195 314.645639 
L 310.49835 313.297024 
L 311.39115 314.191126 
L 312.28395 313.591895 
L 312.73035 312.010488 
L 313.17675 308.953906 
L 313.62315 304.881255 
L 314.06955 305.073246 
L 314.96235 316.508627 
L 315.40875 318.051084 
L 315.85515 318.345428 
L 316.74795 318.182392 
L 317.64075 318.476614 
L 318.08715 319.122516 
L 319.42635 323.414037 
L 319.87275 324.152742 
L 320.76555 324.753013 
L 322.10475 324.327762 
L 322.55115 323.256978 
L 322.99755 321.534628 
L 323.44395 319.24069 
L 323.89035 305.912439 
L 324.33675 302.401383 
L 324.78315 309.490136 
L 325.22955 308.938972 
L 325.67595 309.52372 
L 326.56875 319.360786 
L 327.46155 320.788674 
L 327.90795 320.642991 
L 329.24715 318.020845 
L 329.69355 316.601396 
L 330.13995 313.797617 
L 331.03275 303.223127 
L 331.47915 304.95328 
L 331.92555 315.685666 
L 332.37195 318.941562 
L 332.81835 318.570469 
L 333.71115 316.848799 
L 334.15755 316.451095 
L 334.60395 316.72557 
L 335.05035 318.089768 
L 335.49675 318.117267 
L 335.94315 317.200464 
L 336.38955 314.796325 
L 336.83595 313.745242 
L 337.28235 311.514674 
L 337.72875 310.586038 
L 338.62155 304.563801 
L 339.06795 308.002448 
L 339.51435 306.83869 
L 339.96075 303.860516 
L 340.40715 306.364682 
L 341.29995 319.748062 
L 341.74635 322.009185 
L 342.63915 323.190062 
L 343.08555 323.1343 
L 343.53195 323.645372 
L 344.42475 325.096701 
L 344.87115 324.912893 
L 345.31755 323.575877 
L 345.76395 322.965189 
L 346.65675 325.27435 
L 347.10315 325.921392 
L 347.54955 326.231405 
L 347.99595 325.585959 
L 348.44235 322.428163 
L 348.88875 313.019253 
L 349.33515 313.153128 
L 349.78155 315.030302 
L 350.22795 321.391443 
L 350.67435 323.483269 
L 351.12075 324.020748 
L 351.56715 322.306523 
L 352.01355 319.103867 
L 352.90635 315.354782 
L 353.35275 315.302569 
L 353.79915 313.036569 
L 354.24555 309.970133 
L 355.13835 316.516015 
L 355.58475 316.030861 
L 356.03115 313.551491 
L 356.47755 312.661011 
L 356.92395 312.05726 
L 357.37035 311.717615 
L 357.81675 312.464715 
L 358.26315 314.553993 
L 359.15595 323.19686 
L 359.60235 326.052681 
L 360.04875 327.088957 
L 360.49515 326.888301 
L 360.94155 325.523087 
L 361.38795 325.627806 
L 361.83435 326.666843 
L 362.28075 326.977015 
L 362.72715 326.459707 
L 363.17355 325.298822 
L 363.61995 325.514906 
L 364.51275 326.529462 
L 364.95915 325.871748 
L 365.40555 323.452473 
L 365.85195 320.299682 
L 366.29835 314.979331 
L 366.74475 317.58723 
L 367.19115 322.903883 
L 367.63755 323.512563 
L 368.08395 323.56724 
L 368.53035 323.090506 
L 368.97675 320.297412 
L 369.42315 316.686641 
L 369.86955 316.821326 
L 370.31595 316.119229 
L 370.76235 316.334839 
L 371.20875 315.988537 
L 371.65515 314.577806 
L 372.10155 312.610742 
L 372.54795 314.721588 
L 372.99435 321.924593 
L 373.44075 325.796566 
L 374.77995 326.891392 
L 375.22635 326.34262 
L 376.56555 321.764238 
L 377.01195 320.758233 
L 377.45835 321.069327 
L 377.90475 320.000956 
L 378.79755 311.233649 
L 379.24395 314.31806 
L 379.69035 320.305965 
L 380.13675 324.369223 
L 380.58315 323.74148 
L 381.02955 322.073833 
L 381.47595 322.047242 
L 381.92235 322.393722 
L 382.36875 323.745504 
L 382.81515 324.304938 
L 383.26155 325.52027 
L 383.70795 326.287637 
L 384.15435 326.762484 
L 384.60075 321.470667 
L 385.04715 318.314444 
L 385.49355 322.831127 
L 385.93995 321.659973 
L 386.38635 317.450812 
L 386.83275 316.366063 
L 387.27915 318.290328 
L 387.72555 315.893905 
L 388.61835 317.426523 
L 389.06475 318.538319 
L 389.51115 316.793035 
L 389.95755 314.043301 
L 390.40395 314.860733 
L 390.85035 316.967793 
L 391.29675 320.28707 
L 391.74315 322.552208 
L 392.18955 322.91324 
L 393.08235 321.346134 
L 393.52875 308.622616 
L 393.97515 309.279334 
L 394.42155 315.470553 
L 394.86795 315.97627 
L 395.76075 322.033605 
L 396.20715 320.380086 
L 396.65355 318.246953 
L 397.09995 317.865346 
L 397.54635 318.799324 
L 397.99275 318.033501 
L 398.43915 314.897114 
L 398.88555 313.837251 
L 399.33195 311.290931 
L 399.77835 316.071418 
L 400.22475 322.545314 
L 400.67115 322.305544 
L 401.11755 319.875709 
L 401.56395 320.579246 
L 402.01035 321.734863 
L 402.45675 323.634823 
L 402.90315 323.71315 
L 403.34955 323.294578 
L 404.24235 320.788135 
L 404.68875 320.56354 
L 405.13515 319.197363 
L 405.58155 318.472803 
L 406.02795 315.760892 
L 406.92075 306.559447 
L 407.36715 307.429252 
L 408.25995 327.561762 
L 408.70635 330.363996 
L 409.15275 330.638009 
L 409.59915 330.242746 
L 410.04555 329.332089 
L 410.49195 327.992208 
L 410.93835 327.386621 
L 411.38475 327.87576 
L 411.83115 326.325762 
L 412.27755 328.187369 
L 412.72395 327.713464 
L 413.61675 324.344674 
L 414.06315 324.616211 
L 414.50955 325.982021 
L 414.95595 326.844276 
L 415.40235 326.130274 
L 415.84875 322.566832 
L 416.29515 316.869589 
L 416.74155 314.647545 
L 417.18795 305.838658 
L 417.63435 307.479921 
L 418.08075 319.970798 
L 418.97355 319.407004 
L 419.41995 320.590294 
L 419.86635 319.480734 
L 420.75915 311.961195 
L 421.20555 310.193502 
L 422.09835 325.840412 
L 422.54475 327.403068 
L 422.99115 326.21692 
L 423.43755 325.416744 
L 423.88395 323.384224 
L 424.33035 323.501704 
L 424.77675 324.94957 
L 425.66955 326.147079 
L 426.11595 324.391155 
L 426.56235 323.415205 
L 427.00875 325.508808 
L 427.45515 324.164079 
L 427.90155 319.904593 
L 428.34795 316.984564 
L 428.79435 318.158402 
L 429.24075 316.573168 
L 429.68715 318.444376 
L 430.13355 319.037368 
L 430.57995 317.905886 
L 431.02635 317.487004 
L 431.47275 318.449822 
L 431.91915 318.914949 
L 432.36555 314.884899 
L 432.81195 316.753223 
L 433.25835 319.670386 
L 433.70475 319.589847 
L 434.15115 317.549045 
L 434.59755 311.573046 
L 435.04395 319.344803 
L 435.49035 319.116044 
L 435.93675 316.606493 
L 436.38315 317.716374 
L 436.82955 317.299325 
L 437.27595 313.593133 
L 437.72235 311.770987 
L 438.61515 325.501575 
L 439.06155 326.938221 
L 439.50795 327.669924 
L 439.95435 328.86733 
L 440.40075 330.397775 
L 440.84715 331.126955 
L 441.29355 330.546439 
L 441.73995 330.399195 
L 442.63275 331.876406 
L 443.07915 331.890778 
L 443.52555 332.034053 
L 443.97195 332.026198 
L 444.41835 332.385086 
L 444.86475 332.457165 
L 445.31115 332.185545 
L 445.75755 330.32056 
L 446.20395 331.004972 
L 446.65035 327.449318 
L 447.09675 322.953316 
L 447.54315 322.679714 
L 448.88235 311.215935 
L 449.32875 248.264646 
L 449.77515 242.262494 
L 450.22155 244.892021 
L 450.66795 234.908383 
L 451.11435 238.791292 
L 451.56075 237.198091 
L 452.00715 247.11802 
L 452.45355 249.034618 
L 452.89995 250.370314 
L 453.34635 250.574919 
L 453.79275 250.211632 
L 454.23915 253.963494 
L 454.68555 253.39132 
L 455.13195 253.876267 
L 455.57835 244.916745 
L 456.02475 247.525758 
L 456.47115 249.221145 
L 456.91755 244.54067 
L 457.36395 243.449603 
L 457.81035 251.375414 
L 458.25675 253.934542 
L 458.70315 248.140471 
L 459.14955 245.592011 
L 459.59595 244.954949 
L 460.04235 241.029845 
L 460.48875 240.825889 
L 460.93515 240.791221 
L 461.38155 239.590257 
L 461.82795 240.799538 
L 462.27435 233.581777 
L 462.72075 233.152994 
L 463.61355 227.243447 
L 464.05995 224.648438 
L 464.50635 224.028763 
L 464.95275 226.734184 
L 465.39915 230.187574 
L 465.84555 230.517851 
L 466.29195 230.459914 
L 467.18475 232.377722 
L 467.63115 232.212005 
L 468.52395 235.955127 
L 468.97035 236.383391 
L 469.41675 235.349828 
L 470.30955 235.830226 
L 470.75595 234.69344 
L 471.20235 234.822175 
L 471.64875 234.632258 
L 472.09515 236.334487 
L 472.54155 237.479072 
L 472.98795 236.419969 
L 473.43435 236.928713 
L 473.88075 237.765167 
L 474.32715 237.269001 
L 474.77355 237.627623 
L 475.66635 243.922795 
L 476.11275 243.767138 
L 476.55915 242.032014 
L 477.00555 240.951906 
L 477.89835 245.485503 
L 478.79115 247.439415 
L 479.23755 246.375386 
L 479.68395 246.438509 
L 480.13035 246.105318 
L 480.57675 246.303258 
L 481.46955 249.050365 
L 481.91595 249.653351 
L 482.36235 249.53213 
L 482.80875 249.831291 
L 483.25515 248.340975 
L 483.70155 248.492172 
L 484.59435 251.506187 
L 485.04075 252.458918 
L 485.48715 252.496408 
L 486.37995 251.119381 
L 486.82635 251.34507 
L 487.27275 253.399304 
L 487.71915 253.017698 
L 488.16555 253.44176 
L 488.61195 253.26704 
L 489.05835 252.141837 
L 489.50475 252.16601 
L 489.95115 253.744482 
L 490.39755 253.183645 
L 491.29035 256.747858 
L 491.73675 257.014924 
L 492.18315 257.42829 
L 492.62955 256.775434 
L 493.07595 256.829652 
L 493.52235 256.570191 
L 493.96875 256.11945 
L 494.41515 256.286817 
L 494.86155 254.308112 
L 495.30795 255.184431 
L 495.75435 254.309979 
L 496.20075 255.672268 
L 496.64715 259.050476 
L 497.09355 259.432333 
L 497.98635 254.556633 
L 498.43275 255.185037 
L 498.87915 256.935521 
L 499.32555 258.209688 
L 499.77195 258.887248 
L 500.21835 258.912424 
L 500.66475 258.090858 
L 501.11115 257.936012 
L 501.55755 257.131719 
L 502.00395 257.244469 
L 502.45035 256.795692 
L 502.89675 256.144447 
L 503.34315 256.204913 
L 504.23595 260.516448 
L 504.68235 260.585094 
L 505.57515 257.749588 
L 506.02155 259.987783 
L 506.46795 260.101256 
L 506.91435 259.786599 
L 507.36075 259.260703 
L 507.80715 258.01009 
L 508.69995 257.224505 
L 509.14635 256.500247 
L 509.59275 255.042882 
L 510.03915 256.244763 
L 510.48555 257.985892 
L 510.93195 258.735916 
L 511.37835 259.807202 
L 511.82475 259.537658 
L 512.27115 258.089242 
L 512.71755 258.578727 
L 513.16395 261.406431 
L 513.61035 262.36179 
L 514.50315 265.263003 
L 514.94955 265.064711 
L 515.39595 263.567553 
L 515.84235 264.25873 
L 516.28875 264.008285 
L 516.73515 263.626886 
L 517.18155 264.161752 
L 517.62795 266.050293 
L 518.07435 267.414546 
L 518.96715 267.964678 
L 519.41355 268.006526 
L 519.85995 267.237226 
L 520.30635 266.738747 
L 521.19915 265.042525 
L 521.64555 262.695938 
L 522.09195 261.414024 
L 522.53835 262.17781 
L 522.98475 262.25733 
L 523.43115 260.329257 
L 523.87755 259.911636 
L 524.32395 261.279431 
L 524.77035 266.057883 
L 525.21675 267.81916 
L 525.66315 266.50703 
L 526.10955 265.811324 
L 527.00235 266.937496 
L 527.89515 267.018407 
L 528.34155 266.823129 
L 528.78795 266.857834 
L 529.23435 265.531407 
L 530.12715 260.811523 
L 530.57355 260.694361 
L 531.01995 263.228725 
L 531.46635 263.527741 
L 532.35915 269.360139 
L 532.80555 269.554393 
L 533.25195 269.139726 
L 533.69835 269.498049 
L 534.14475 270.014893 
L 534.59115 271.477241 
L 535.03755 273.721794 
L 535.93035 275.914649 
L 536.37675 276.551077 
L 536.82315 275.995993 
L 537.26955 274.973106 
L 537.71595 272.354924 
L 538.16235 267.932528 
L 538.60875 265.309295 
L 538.60875 265.309295 
" clip-path="url(#pf4605d0964)" style="fill: none; stroke: #1f77b4; stroke-width: 3; stroke-linecap: round"/>
    <defs>
     <path id="m26c39fa1a4" d="M 0 6 
C 1.591219 6 3.117479 5.367802 4.242641 4.242641 
C 5.367802 3.117479 6 1.591219 6 0 
C 6 -1.591219 5.367802 -3.117479 4.242641 -4.242641 
C 3.117479 -5.367802 1.591219 -6 0 -6 
C -1.591219 -6 -3.117479 -5.367802 -4.242641 -4.242641 
C -5.367802 -3.117479 -6 -1.591219 -6 0 
C -6 1.591219 -5.367802 3.117479 -4.242641 4.242641 
C -3.117479 5.367802 -1.591219 6 0 6 
z
" style="stroke: #1f77b4"/>
    </defs>
    <g clip-path="url(#pf4605d0964)">
     <use xlink:href="#m26c39fa1a4" x="92.65515" y="13.878586" style="fill: #1f77b4; stroke: #1f77b4"/>
     <use xlink:href="#m26c39fa1a4" x="137.29515" y="285.633501" style="fill: #1f77b4; stroke: #1f77b4"/>
     <use xlink:href="#m26c39fa1a4" x="181.93515" y="302.775642" style="fill: #1f77b4; stroke: #1f77b4"/>
     <use xlink:href="#m26c39fa1a4" x="226.57515" y="315.651151" style="fill: #1f77b4; stroke: #1f77b4"/>
     <use xlink:href="#m26c39fa1a4" x="271.21515" y="307.351079" style="fill: #1f77b4; stroke: #1f77b4"/>
     <use xlink:href="#m26c39fa1a4" x="315.85515" y="318.345428" style="fill: #1f77b4; stroke: #1f77b4"/>
     <use xlink:href="#m26c39fa1a4" x="360.49515" y="326.888301" style="fill: #1f77b4; stroke: #1f77b4"/>
     <use xlink:href="#m26c39fa1a4" x="405.13515" y="319.197363" style="fill: #1f77b4; stroke: #1f77b4"/>
     <use xlink:href="#m26c39fa1a4" x="449.77515" y="242.262494" style="fill: #1f77b4; stroke: #1f77b4"/>
     <use xlink:href="#m26c39fa1a4" x="494.41515" y="256.286817" style="fill: #1f77b4; stroke: #1f77b4"/>
    </g>
   </g>
   <g id="line2d_26">
    <path d="M 92.65515 97.162702 
L 93.10155 144.330066 
L 93.54795 179.540355 
L 94.44075 183.651073 
L 94.88715 170.800743 
L 95.33355 193.117987 
L 95.77995 193.954687 
L 96.22635 198.253244 
L 97.11915 211.912262 
L 97.56555 217.438669 
L 98.01195 218.528128 
L 98.45835 224.986626 
L 98.90475 220.401781 
L 99.35115 229.087122 
L 100.24395 235.615032 
L 100.69035 238.041334 
L 101.13675 239.72396 
L 101.58315 242.568722 
L 102.02955 246.810996 
L 102.92235 249.932727 
L 103.36875 249.930025 
L 103.81515 252.50373 
L 104.26155 252.782176 
L 104.70795 254.043309 
L 105.15435 252.545959 
L 105.60075 255.144103 
L 106.04715 256.323786 
L 106.49355 258.23907 
L 106.93995 258.987617 
L 107.38635 258.628283 
L 107.83275 260.219258 
L 108.27915 257.954535 
L 108.72555 259.788921 
L 109.17195 256.045956 
L 109.61835 260.498326 
L 110.06475 263.328125 
L 110.51115 263.644826 
L 111.40395 266.36329 
L 111.85035 264.71281 
L 112.29675 264.847599 
L 112.74315 267.210722 
L 113.18955 258.439813 
L 113.63595 267.946171 
L 114.08235 267.705909 
L 114.52875 268.470736 
L 114.97515 266.669434 
L 115.42155 270.100944 
L 115.86795 269.705708 
L 116.31435 271.22873 
L 116.76075 270.524777 
L 117.20715 271.845206 
L 117.65355 271.884284 
L 118.09995 273.107469 
L 118.54635 274.747026 
L 118.99275 272.544933 
L 119.43915 273.878866 
L 119.88555 258.418265 
L 120.33195 274.753969 
L 120.77835 272.85415 
L 121.22475 276.062777 
L 121.67115 264.105087 
L 122.11755 276.55938 
L 122.56395 277.208022 
L 123.01035 277.51985 
L 123.45675 267.593441 
L 123.90315 279.014077 
L 124.79595 278.523054 
L 125.24235 277.707877 
L 125.68875 278.131994 
L 126.13515 280.63268 
L 126.58155 278.670691 
L 127.02795 268.687238 
L 127.47435 277.825142 
L 127.92075 278.934004 
L 128.36715 277.378516 
L 128.81355 279.842309 
L 129.25995 276.935685 
L 129.70635 263.37723 
L 130.15275 281.079059 
L 130.59915 280.311681 
L 131.04555 283.11191 
L 131.49195 281.1662 
L 131.93835 282.862103 
L 132.38475 281.463482 
L 132.83115 272.325615 
L 133.27755 283.867293 
L 133.72395 282.999661 
L 134.17035 278.068673 
L 135.06315 284.635427 
L 135.50955 284.915532 
L 135.95595 283.536352 
L 136.40235 277.418152 
L 136.84875 281.790314 
L 137.29515 284.073668 
L 137.74155 281.257498 
L 138.18795 285.354766 
L 138.63435 285.611873 
L 139.08075 280.670561 
L 139.52715 286.541704 
L 139.97355 286.624679 
L 140.41995 284.273917 
L 140.86635 286.087602 
L 141.31275 282.818161 
L 142.20555 287.544818 
L 142.65195 286.477042 
L 143.09835 285.108521 
L 143.54475 286.397438 
L 143.99115 285.071608 
L 144.43755 282.766417 
L 144.88395 285.687098 
L 145.33035 280.11213 
L 145.77675 281.153928 
L 146.22315 287.619279 
L 146.66955 288.199672 
L 147.56235 285.60973 
L 148.00875 288.000531 
L 148.45515 286.874185 
L 148.90155 284.86383 
L 149.34795 288.094069 
L 149.79435 287.849922 
L 150.24075 289.208168 
L 151.13355 286.927938 
L 151.57995 284.691904 
L 152.02635 287.971202 
L 152.47275 289.013823 
L 153.36555 280.107069 
L 153.81195 279.568899 
L 154.25835 288.620442 
L 154.70475 288.94416 
L 155.15115 288.695253 
L 155.59755 286.186472 
L 156.04395 287.860177 
L 156.49035 286.604253 
L 156.93675 284.210065 
L 157.38315 290.126079 
L 157.82955 289.107116 
L 158.27595 288.846244 
L 158.72235 288.806481 
L 159.16875 284.775785 
L 159.61515 286.44289 
L 160.06155 288.867847 
L 160.50795 289.624341 
L 160.95435 287.412838 
L 161.40075 286.847797 
L 161.84715 288.015807 
L 162.29355 286.148471 
L 162.73995 288.892817 
L 163.18635 289.489662 
L 163.63275 287.803132 
L 164.07915 284.195794 
L 164.52555 287.054703 
L 164.97195 289.113663 
L 165.41835 288.941294 
L 165.86475 290.96266 
L 166.31115 289.610421 
L 167.20395 290.87876 
L 167.65035 286.288555 
L 168.54315 290.297472 
L 168.98955 290.468412 
L 169.43595 290.094365 
L 169.88235 289.334601 
L 170.32875 290.23305 
L 170.77515 290.699456 
L 171.22155 290.837542 
L 171.66795 290.108291 
L 172.11435 290.273142 
L 172.56075 290.246456 
L 173.00715 289.774474 
L 173.45355 286.584951 
L 174.34635 276.273513 
L 174.79275 272.626289 
L 175.23915 276.402024 
L 175.68555 278.320225 
L 176.13195 281.533568 
L 176.57835 283.384399 
L 177.02475 283.697807 
L 177.91755 287.855486 
L 178.81035 287.226818 
L 179.25675 289.713338 
L 179.70315 290.1709 
L 180.59595 290.650825 
L 181.04235 281.586396 
L 181.48875 289.464724 
L 181.93515 289.970977 
L 182.38155 286.293479 
L 182.82795 276.03792 
L 183.27435 285.768801 
L 183.72075 288.729424 
L 184.16715 289.267376 
L 184.61355 275.704128 
L 185.05995 278.794731 
L 185.50635 286.416107 
L 185.95275 288.946172 
L 186.39915 288.472217 
L 186.84555 289.601863 
L 187.29195 290.093231 
L 187.73835 290.256138 
L 188.18475 267.460341 
L 188.63115 288.317396 
L 189.07755 290.172682 
L 189.52395 290.810059 
L 189.97035 290.465432 
L 190.41675 290.481097 
L 190.86315 290.139207 
L 191.30955 290.33 
L 191.75595 286.676388 
L 192.20235 287.213303 
L 192.64875 286.883017 
L 193.09515 283.484994 
L 193.54155 283.015994 
L 193.98795 284.08413 
L 194.43435 284.113631 
L 195.32715 286.457123 
L 195.77355 286.60886 
L 196.21995 283.094243 
L 196.66635 281.763399 
L 197.11275 284.296197 
L 197.55915 264.803616 
L 198.45195 285.496837 
L 198.89835 287.461967 
L 199.34475 283.99727 
L 199.79115 284.627417 
L 200.68395 278.619903 
L 201.13035 267.132432 
L 201.57675 281.081301 
L 202.02315 285.864619 
L 202.46955 286.694201 
L 203.36235 284.97596 
L 204.25515 287.774054 
L 204.70155 288.523366 
L 205.14795 288.945862 
L 205.59435 288.737121 
L 206.48715 287.505331 
L 206.93355 288.072084 
L 207.37995 287.909918 
L 207.82635 283.825222 
L 208.27275 283.713919 
L 208.71915 277.490404 
L 209.16555 285.789273 
L 209.61195 286.982739 
L 210.05835 284.339155 
L 210.50475 284.128044 
L 210.95115 280.44527 
L 211.39755 283.283355 
L 211.84395 280.842687 
L 212.29035 284.708928 
L 212.73675 285.690418 
L 213.18315 284.082481 
L 213.62955 283.754834 
L 214.52235 285.761198 
L 215.41515 286.244903 
L 215.86155 283.221614 
L 216.30795 281.382624 
L 216.75435 269.690375 
L 217.20075 280.855979 
L 217.64715 279.006296 
L 218.09355 284.061841 
L 218.98635 281.536008 
L 219.87915 285.328775 
L 220.32555 286.027036 
L 220.77195 285.537799 
L 221.21835 280.857466 
L 222.11115 268.544486 
L 223.00395 281.312302 
L 223.45035 277.7972 
L 223.89675 277.469273 
L 224.34315 282.297831 
L 225.23595 275.169346 
L 225.68235 281.166221 
L 226.12875 284.475757 
L 226.57515 285.409008 
L 227.02155 285.945944 
L 227.91435 286.19153 
L 228.80715 285.93666 
L 229.25355 285.285601 
L 229.69995 284.873573 
L 230.14635 285.721086 
L 230.59275 285.540359 
L 231.03915 283.404306 
L 231.48555 282.61552 
L 231.93195 282.837094 
L 232.37835 284.928127 
L 232.82475 281.730778 
L 233.27115 284.373212 
L 233.71755 267.604574 
L 234.16395 279.830774 
L 234.61035 284.113319 
L 235.05675 282.388422 
L 235.50315 279.732017 
L 235.94955 269.238144 
L 236.39595 277.709785 
L 236.84235 279.090618 
L 237.28875 283.613184 
L 238.18155 281.880457 
L 238.62795 281.673707 
L 239.07435 282.584924 
L 239.52075 270.380142 
L 239.96715 279.80914 
L 240.41355 284.778478 
L 241.30635 272.538921 
L 241.75275 277.893454 
L 242.19915 275.702241 
L 242.64555 281.039095 
L 243.09195 280.902163 
L 243.53835 280.198334 
L 243.98475 282.46912 
L 244.43115 280.955891 
L 244.87755 280.846039 
L 245.32395 282.857317 
L 245.77035 282.840453 
L 246.21675 283.110066 
L 246.66315 282.33005 
L 247.10955 282.547875 
L 247.55595 281.281037 
L 248.44875 277.540283 
L 248.89515 279.160005 
L 249.34155 276.40212 
L 249.78795 278.869749 
L 250.23435 280.067439 
L 250.68075 274.89532 
L 251.12715 264.63848 
L 251.57355 279.461419 
L 252.01995 278.56229 
L 252.46635 279.037892 
L 252.91275 278.163673 
L 253.35915 277.591659 
L 253.80555 275.140871 
L 254.25195 282.957815 
L 254.69835 278.067188 
L 255.14475 278.608827 
L 255.59115 280.262337 
L 256.48395 275.300578 
L 257.37675 278.818943 
L 257.82315 278.398513 
L 258.26955 275.933168 
L 258.71595 272.350166 
L 259.16235 267.127147 
L 260.05515 281.949494 
L 260.50155 281.732989 
L 260.94795 281.39033 
L 262.28715 281.706831 
L 262.73355 280.934379 
L 263.17995 279.179633 
L 263.62635 279.638725 
L 264.07275 280.723822 
L 264.51915 281.134409 
L 264.96555 281.342837 
L 265.41195 281.026437 
L 265.85835 281.417929 
L 266.30475 282.378603 
L 266.75115 279.98528 
L 267.19755 280.944251 
L 267.64395 270.574465 
L 268.53675 281.305401 
L 268.98315 281.095468 
L 269.42955 279.20354 
L 269.87595 278.447192 
L 270.32235 278.923218 
L 270.76875 266.837769 
L 271.21515 276.891013 
L 271.66155 279.18805 
L 272.10795 279.555714 
L 272.55435 281.17109 
L 273.00075 279.722242 
L 273.44715 276.656305 
L 273.89355 274.435591 
L 274.78635 274.962574 
L 275.23275 274.456833 
L 275.67915 277.195184 
L 276.12555 274.420809 
L 276.57195 272.787557 
L 277.01835 273.930327 
L 277.46475 276.310102 
L 277.91115 273.328509 
L 278.35755 273.302317 
L 278.80395 272.110862 
L 279.25035 275.063365 
L 279.69675 271.772719 
L 280.14315 258.371777 
L 280.58955 263.305523 
L 281.03595 262.46879 
L 281.48235 262.830059 
L 281.92875 269.849793 
L 282.37515 273.723208 
L 282.82155 275.047675 
L 283.26795 274.439888 
L 283.71435 276.793901 
L 284.16075 272.645492 
L 284.60715 271.728092 
L 285.05355 268.540262 
L 285.49995 259.85403 
L 285.94635 253.616994 
L 286.39275 279.248683 
L 286.83915 278.138374 
L 287.28555 279.757656 
L 288.17835 274.858917 
L 288.62475 271.661662 
L 289.07115 273.123439 
L 289.51755 271.717321 
L 289.96395 272.105188 
L 290.41035 273.173171 
L 290.85675 272.094513 
L 291.30315 272.066186 
L 291.74955 271.877262 
L 292.19595 272.294561 
L 292.64235 274.364053 
L 293.08875 275.814243 
L 293.53515 274.927522 
L 293.98155 275.937741 
L 294.42795 261.670525 
L 294.87435 269.143178 
L 295.32075 258.427336 
L 295.76715 265.937666 
L 296.21355 275.930307 
L 296.65995 278.002176 
L 297.10635 279.505568 
L 297.55275 279.002218 
L 297.99915 277.582061 
L 298.44555 278.802869 
L 299.33835 275.914767 
L 299.78475 276.114173 
L 300.23115 277.777553 
L 300.67755 277.237025 
L 301.12395 274.765569 
L 301.57035 274.145812 
L 302.01675 275.866281 
L 302.46315 276.046767 
L 302.90955 277.492935 
L 303.35595 275.674634 
L 303.80235 251.288745 
L 304.24875 254.964474 
L 304.69515 266.98463 
L 305.14155 272.57704 
L 305.58795 273.150013 
L 306.03435 261.852563 
L 306.48075 270.613542 
L 306.92715 269.068672 
L 307.37355 268.620587 
L 307.81995 269.483179 
L 308.26635 269.033946 
L 308.71275 273.22575 
L 309.15915 274.94802 
L 309.60555 273.865455 
L 310.05195 269.684733 
L 310.49835 274.568215 
L 310.94475 274.380338 
L 311.39115 266.463122 
L 311.83755 264.038036 
L 312.28395 265.793267 
L 312.73035 270.437719 
L 313.17675 276.501868 
L 313.62315 275.374153 
L 314.06955 272.273091 
L 314.51595 276.319065 
L 314.96235 273.551563 
L 315.40875 272.348052 
L 315.85515 273.446328 
L 316.30155 275.267776 
L 316.74795 275.63715 
L 317.19435 275.556981 
L 317.64075 274.384439 
L 318.08715 275.736812 
L 318.53355 277.880824 
L 318.97995 277.76586 
L 319.42635 278.126949 
L 319.87275 278.037427 
L 320.31915 277.304145 
L 320.76555 278.015713 
L 321.21195 276.641764 
L 321.65835 276.379449 
L 322.10475 274.185185 
L 322.99755 265.23909 
L 323.44395 269.763786 
L 323.89035 272.84294 
L 324.33675 274.695587 
L 324.78315 270.661555 
L 325.22955 269.285956 
L 325.67595 267.37697 
L 326.12235 278.400594 
L 327.01515 276.221824 
L 327.46155 275.643568 
L 327.90795 273.362809 
L 328.35435 273.866341 
L 328.80075 275.177776 
L 329.24715 273.063964 
L 329.69355 274.741274 
L 330.13995 273.742347 
L 330.58635 273.504116 
L 331.03275 265.648436 
L 331.47915 277.194929 
L 331.92555 276.937874 
L 332.37195 275.982161 
L 332.81835 275.567537 
L 333.26475 274.450032 
L 333.71115 275.040436 
L 334.60395 277.298379 
L 335.05035 277.743855 
L 335.49675 276.804145 
L 335.94315 275.212163 
L 336.83595 270.74854 
L 337.72875 274.206398 
L 338.17515 273.642396 
L 338.62155 276.016552 
L 339.06795 260.925253 
L 339.51435 269.932535 
L 339.96075 274.634013 
L 340.40715 262.878008 
L 340.85355 273.525078 
L 341.29995 277.837443 
L 341.74635 277.323515 
L 342.19275 276.154749 
L 342.63915 276.153521 
L 343.08555 276.932159 
L 343.53195 276.915791 
L 343.97835 277.080824 
L 344.42475 276.757901 
L 344.87115 276.220975 
L 345.31755 277.076093 
L 345.76395 278.782599 
L 346.21035 278.465731 
L 346.65675 277.902719 
L 347.10315 276.937874 
L 347.54955 276.6979 
L 347.99595 275.646014 
L 348.44235 266.447643 
L 348.88875 260.597869 
L 349.33515 274.220871 
L 349.78155 277.874315 
L 350.22795 276.230334 
L 350.67435 277.082921 
L 351.12075 276.413158 
L 351.56715 275.064661 
L 352.01355 275.114775 
L 352.90635 272.880124 
L 353.35275 262.372619 
L 353.79915 258.929234 
L 354.24555 276.609803 
L 354.69195 271.757296 
L 355.13835 268.485409 
L 355.58475 263.984063 
L 356.03115 262.860529 
L 356.47755 272.440857 
L 356.92395 276.217437 
L 357.37035 276.509048 
L 358.26315 267.476129 
L 358.70955 270.711258 
L 359.15595 276.736483 
L 359.60235 277.651515 
L 360.04875 277.187265 
L 360.49515 277.189455 
L 360.94155 276.188248 
L 361.38795 276.310584 
L 361.83435 277.077716 
L 362.28075 277.393935 
L 362.72715 277.569473 
L 363.17355 275.173099 
L 363.61995 276.66728 
L 364.06635 276.953444 
L 364.51275 277.097154 
L 364.95915 273.999397 
L 365.40555 264.29774 
L 365.85195 277.424211 
L 366.29835 269.696457 
L 366.74475 274.844544 
L 367.19115 274.859889 
L 367.63755 271.357081 
L 368.08395 273.28798 
L 368.53035 273.084619 
L 368.97675 267.858146 
L 369.42315 274.723349 
L 369.86955 260.210713 
L 370.31595 264.081816 
L 370.76235 259.18481 
L 371.20875 264.056029 
L 371.65515 272.95424 
L 372.10155 264.395977 
L 372.99435 271.604648 
L 373.44075 271.220319 
L 373.88715 273.890794 
L 374.33355 273.488693 
L 375.22635 271.936038 
L 376.11915 272.122225 
L 376.56555 271.075701 
L 377.01195 271.29613 
L 377.45835 270.809388 
L 377.90475 271.309223 
L 378.35115 272.763731 
L 378.79755 268.765491 
L 379.24395 267.606868 
L 379.69035 273.010281 
L 380.13675 271.862652 
L 380.58315 269.048481 
L 381.02955 268.211967 
L 381.47595 272.474358 
L 381.92235 274.055655 
L 382.36875 273.937281 
L 382.81515 273.021927 
L 383.26155 273.438293 
L 383.70795 274.124776 
L 384.15435 274.032065 
L 384.60075 270.58899 
L 385.04715 271.576333 
L 385.49355 275.228654 
L 385.93995 256.794523 
L 386.38635 269.250643 
L 386.83275 272.995102 
L 387.27915 263.022249 
L 387.72555 260.278114 
L 388.17195 263.898636 
L 388.61835 270.436212 
L 389.06475 269.963957 
L 389.95755 272.737768 
L 390.40395 272.578336 
L 390.85035 261.283795 
L 391.29675 265.454415 
L 391.74315 267.692432 
L 392.18955 266.290013 
L 392.63595 269.669175 
L 393.08235 270.505971 
L 393.52875 265.759846 
L 393.97515 263.326605 
L 394.42155 271.202874 
L 394.86795 267.359601 
L 395.76075 262.872563 
L 396.20715 262.730143 
L 396.65355 261.611607 
L 397.09995 259.205605 
L 397.54635 258.470103 
L 397.99275 264.668312 
L 398.43915 272.919991 
L 398.88555 260.409123 
L 399.33195 270.378874 
L 399.77835 272.314541 
L 400.22475 271.098656 
L 400.67115 267.658532 
L 401.11755 268.774815 
L 401.56395 271.476033 
L 402.01035 271.762515 
L 402.45675 271.069214 
L 402.90315 271.125054 
L 403.34955 272.387366 
L 403.79595 269.946872 
L 404.24235 266.725292 
L 404.68875 258.364381 
L 405.13515 259.158229 
L 405.58155 258.361839 
L 406.02795 254.952565 
L 406.47435 265.432066 
L 406.92075 271.224828 
L 407.36715 261.38977 
L 407.81355 267.761274 
L 408.25995 271.826891 
L 408.70635 271.198872 
L 409.59915 268.694338 
L 410.04555 267.979064 
L 410.49195 268.221442 
L 410.93835 268.850813 
L 411.38475 271.315833 
L 411.83115 272.018122 
L 412.27755 271.099016 
L 412.72395 270.967028 
L 413.61675 272.315042 
L 414.06315 273.984924 
L 414.50955 274.160787 
L 415.40235 272.908025 
L 415.84875 272.999325 
L 416.29515 258.662613 
L 416.74155 276.138006 
L 417.18795 261.246489 
L 417.63435 268.979783 
L 418.08075 268.15355 
L 418.52715 268.597528 
L 418.97355 267.85142 
L 419.41995 268.632324 
L 419.86635 265.252039 
L 420.31275 253.757254 
L 420.75915 267.745205 
L 421.20555 254.85151 
L 421.65195 270.033266 
L 422.09835 270.789361 
L 422.54475 270.910236 
L 422.99115 271.322622 
L 423.43755 272.059312 
L 423.88395 272.401108 
L 424.33035 273.624587 
L 424.77675 273.286599 
L 425.22315 271.872526 
L 425.66955 269.688773 
L 426.11595 268.981535 
L 427.00875 273.584468 
L 427.45515 273.701185 
L 427.90155 263.950525 
L 428.34795 269.241279 
L 428.79435 267.648868 
L 429.24075 271.129797 
L 429.68715 271.782586 
L 430.13355 271.239046 
L 430.57995 265.383932 
L 431.02635 252.992617 
L 431.47275 269.054471 
L 431.91915 270.871289 
L 432.36555 268.181514 
L 432.81195 266.715453 
L 433.25835 269.978238 
L 433.70475 269.894928 
L 434.15115 264.246457 
L 434.59755 266.821465 
L 435.04395 271.791116 
L 435.49035 273.36738 
L 436.38315 270.254221 
L 436.82955 262.892404 
L 437.27595 273.221982 
L 437.72235 271.018215 
L 438.16875 267.314646 
L 439.06155 273.506017 
L 439.95435 273.926869 
L 440.40075 274.121744 
L 441.29355 275.399541 
L 441.73995 274.7579 
L 442.18635 273.617944 
L 442.63275 273.424627 
L 443.52555 273.873651 
L 443.97195 274.142964 
L 444.41835 274.018105 
L 444.86475 273.371045 
L 445.31115 271.787661 
L 445.75755 271.997849 
L 446.20395 272.854099 
L 446.65035 269.581993 
L 447.09675 272.268669 
L 447.54315 271.205258 
L 447.98955 272.907436 
L 448.43595 256.980739 
L 448.88235 269.327238 
L 449.32875 229.31314 
L 449.77515 228.060945 
L 450.22155 217.603199 
L 450.66795 216.534367 
L 451.11435 215.900615 
L 451.56075 224.289394 
L 452.00715 222.314552 
L 452.45355 226.728826 
L 452.89995 224.257662 
L 453.34635 219.019781 
L 453.79275 225.276332 
L 454.68555 228.103229 
L 455.13195 216.147054 
L 455.57835 217.682357 
L 456.02475 217.951344 
L 456.47115 217.790751 
L 456.91755 212.693466 
L 457.81035 217.630925 
L 458.25675 218.208474 
L 458.70315 214.873971 
L 459.14955 213.851443 
L 459.59595 215.036688 
L 460.04235 205.469742 
L 460.48875 201.765402 
L 460.93515 199.428532 
L 461.38155 207.410248 
L 461.82795 200.338573 
L 462.27435 196.459575 
L 462.72075 196.23938 
L 463.16715 192.472354 
L 463.61355 193.000546 
L 464.05995 194.815473 
L 464.50635 191.278235 
L 464.95275 192.118203 
L 465.39915 195.040502 
L 465.84555 193.145931 
L 466.29195 193.898157 
L 466.73835 187.260138 
L 467.18475 197.353546 
L 467.63115 195.045807 
L 468.07755 195.794097 
L 468.52395 193.977733 
L 468.97035 196.458073 
L 469.41675 197.240925 
L 469.86315 193.458401 
L 470.30955 193.650728 
L 470.75595 195.787032 
L 471.20235 196.233459 
L 471.64875 195.05621 
L 472.09515 195.687452 
L 472.54155 187.709411 
L 472.98795 191.330397 
L 473.43435 195.962224 
L 473.88075 196.579663 
L 474.32715 192.205402 
L 475.21995 195.392106 
L 475.66635 191.439794 
L 476.11275 194.788563 
L 476.55915 189.728297 
L 477.00555 195.198507 
L 477.45195 194.51689 
L 477.89835 193.353409 
L 478.34475 194.774819 
L 478.79115 190.047182 
L 479.23755 193.128559 
L 479.68395 188.253506 
L 480.13035 193.979241 
L 480.57675 195.284398 
L 481.02315 194.793131 
L 481.46955 191.25265 
L 481.91595 195.135947 
L 482.36235 194.321723 
L 482.80875 188.356115 
L 483.25515 195.646568 
L 483.70155 195.698191 
L 484.14795 195.043585 
L 484.59435 192.431783 
L 485.04075 196.251076 
L 485.48715 192.184929 
L 485.93355 197.607154 
L 486.37995 196.428268 
L 486.82635 196.248295 
L 487.27275 194.739712 
L 487.71915 194.886448 
L 488.16555 193.882191 
L 489.05835 193.454307 
L 489.50475 195.438159 
L 489.95115 192.797322 
L 490.39755 194.908165 
L 490.84395 195.085138 
L 491.29035 188.536294 
L 491.73675 196.964241 
L 492.18315 193.285438 
L 492.62955 195.214806 
L 493.07595 193.770599 
L 493.52235 194.118537 
L 493.96875 189.646478 
L 494.41515 183.549636 
L 494.86155 193.594822 
L 495.30795 192.535846 
L 495.75435 187.814396 
L 496.20075 196.47475 
L 496.64715 196.328511 
L 497.09355 193.247686 
L 497.53995 184.208494 
L 498.43275 197.085268 
L 498.87915 195.376221 
L 499.32555 196.181033 
L 499.77195 195.492191 
L 500.66475 196.093158 
L 501.11115 192.018458 
L 501.55755 186.914802 
L 502.00395 194.764539 
L 502.45035 194.011561 
L 502.89675 188.911791 
L 503.34315 196.020683 
L 503.78955 196.348884 
L 504.23595 195.106131 
L 504.68235 186.21165 
L 505.12875 192.807226 
L 505.57515 191.103009 
L 506.02155 191.884311 
L 506.46795 195.334259 
L 506.91435 195.183695 
L 507.80715 188.64293 
L 508.25355 191.452499 
L 508.69995 190.354975 
L 509.14635 187.372615 
L 509.59275 192.635473 
L 510.03915 192.340806 
L 510.48555 189.598916 
L 510.93195 183.968458 
L 511.37835 192.576403 
L 511.82475 193.874281 
L 512.27115 194.067089 
L 512.71755 191.92605 
L 513.16395 185.256806 
L 513.61035 192.453422 
L 514.05675 195.831935 
L 514.50315 192.00013 
L 514.94955 193.033408 
L 515.39595 195.191349 
L 515.84235 188.857213 
L 516.28875 188.848312 
L 516.73515 193.933172 
L 517.18155 195.359272 
L 517.62795 191.559945 
L 518.07435 189.938436 
L 518.52075 192.599173 
L 518.96715 192.236533 
L 519.41355 187.291025 
L 519.85995 186.254017 
L 520.30635 186.659148 
L 520.75275 191.206303 
L 521.19915 194.235161 
L 522.09195 194.293323 
L 522.53835 188.71548 
L 522.98475 176.721011 
L 523.43115 191.351382 
L 523.87755 189.887062 
L 524.32395 187.58233 
L 524.77035 190.735633 
L 525.66315 184.044772 
L 526.10955 189.979485 
L 526.55595 193.404215 
L 527.00235 194.926337 
L 527.44875 195.452322 
L 527.89515 193.440726 
L 528.34155 193.924051 
L 528.78795 189.603572 
L 529.23435 183.219454 
L 529.68075 185.91491 
L 530.12715 190.11426 
L 530.57355 185.967003 
L 531.01995 184.486385 
L 531.46635 193.850086 
L 531.91275 194.860804 
L 532.35915 193.293556 
L 532.80555 193.220781 
L 533.25195 192.446312 
L 533.69835 192.600887 
L 534.14475 193.329718 
L 534.59115 192.666705 
L 535.48395 193.61854 
L 535.93035 194.761587 
L 536.37675 195.226246 
L 536.82315 194.682189 
L 537.26955 191.794905 
L 537.71595 195.390709 
L 538.16235 195.639467 
L 538.60875 189.94685 
L 538.60875 189.94685 
" clip-path="url(#pf4605d0964)" style="fill: none; stroke: #ff7f0e; stroke-width: 3; stroke-linecap: round"/>
    <defs>
     <path id="m4535ac1cc9" d="M -6 6 
L 6 6 
L 6 -6 
L -6 -6 
z
" style="stroke: #ff7f0e; stroke-linejoin: miter"/>
    </defs>
    <g clip-path="url(#pf4605d0964)">
     <use xlink:href="#m4535ac1cc9" x="92.65515" y="97.162702" style="fill: #ff7f0e; stroke: #ff7f0e; stroke-linejoin: miter"/>
     <use xlink:href="#m4535ac1cc9" x="137.29515" y="284.073668" style="fill: #ff7f0e; stroke: #ff7f0e; stroke-linejoin: miter"/>
     <use xlink:href="#m4535ac1cc9" x="181.93515" y="289.970977" style="fill: #ff7f0e; stroke: #ff7f0e; stroke-linejoin: miter"/>
     <use xlink:href="#m4535ac1cc9" x="226.57515" y="285.409008" style="fill: #ff7f0e; stroke: #ff7f0e; stroke-linejoin: miter"/>
     <use xlink:href="#m4535ac1cc9" x="271.21515" y="276.891013" style="fill: #ff7f0e; stroke: #ff7f0e; stroke-linejoin: miter"/>
     <use xlink:href="#m4535ac1cc9" x="315.85515" y="273.446328" style="fill: #ff7f0e; stroke: #ff7f0e; stroke-linejoin: miter"/>
     <use xlink:href="#m4535ac1cc9" x="360.49515" y="277.189455" style="fill: #ff7f0e; stroke: #ff7f0e; stroke-linejoin: miter"/>
     <use xlink:href="#m4535ac1cc9" x="405.13515" y="259.158229" style="fill: #ff7f0e; stroke: #ff7f0e; stroke-linejoin: miter"/>
     <use xlink:href="#m4535ac1cc9" x="449.77515" y="228.060945" style="fill: #ff7f0e; stroke: #ff7f0e; stroke-linejoin: miter"/>
     <use xlink:href="#m4535ac1cc9" x="494.41515" y="183.549636" style="fill: #ff7f0e; stroke: #ff7f0e; stroke-linejoin: miter"/>
    </g>
   </g>
   <g id="patch_3">
    <path d="M 92.20875 339.84 
L 92.20875 7.2 
" style="fill: none; stroke: #262626; stroke-width: 2.5; stroke-linejoin: miter; stroke-linecap: square"/>
   </g>
   <g id="patch_4">
    <path d="M 538.60875 339.84 
L 538.60875 7.2 
" style="fill: none; stroke: #262626; stroke-width: 2.5; stroke-linejoin: miter; stroke-linecap: square"/>
   </g>
   <g id="patch_5">
    <path d="M 92.20875 339.84 
L 538.60875 339.84 
" style="fill: none; stroke: #262626; stroke-width: 2.5; stroke-linejoin: miter; stroke-linecap: square"/>
   </g>
   <g id="patch_6">
    <path d="M 92.20875 7.2 
L 538.60875 7.2 
" style="fill: none; stroke: #262626; stroke-width: 2.5; stroke-linejoin: miter; stroke-linecap: square"/>
   </g>
   <g id="legend_1">
    <g id="patch_7">
     <path d="M 403.515 87.039375 
L 523.20875 87.039375 
Q 527.60875 87.039375 527.60875 82.639375 
L 527.60875 22.6 
Q 527.60875 18.2 523.20875 18.2 
L 403.515 18.2 
Q 399.115 18.2 399.115 22.6 
L 399.115 82.639375 
Q 399.115 87.039375 403.515 87.039375 
z
" style="fill: #ffffff; opacity: 0.8; stroke: #cccccc; stroke-width: 2; stroke-linejoin: miter"/>
    </g>
    <g id="line2d_27">
     <path d="M 407.915 35.047187 
L 429.915 35.047187 
L 451.915 35.047187 
" style="fill: none; stroke: #1f77b4; stroke-width: 3; stroke-linecap: round"/>
     <g>
      <use xlink:href="#m26c39fa1a4" x="429.915" y="35.047187" style="fill: #1f77b4; stroke: #1f77b4"/>
     </g>
    </g>
    <g id="text_11">
     <!-- Train -->
     <g style="fill: #262626" transform="translate(469.515 42.747187) scale(0.22 -0.22)">
      <defs>
       <path id="ArialMT-54" d="M 1659 0 
L 1659 4041 
L 150 4041 
L 150 4581 
L 3781 4581 
L 3781 4041 
L 2266 4041 
L 2266 0 
L 1659 0 
z
" transform="scale(0.015625)"/>
       <path id="ArialMT-72" d="M 416 0 
L 416 3319 
L 922 3319 
L 922 2816 
Q 1116 3169 1280 3281 
Q 1444 3394 1641 3394 
Q 1925 3394 2219 3213 
L 2025 2691 
Q 1819 2813 1613 2813 
Q 1428 2813 1281 2702 
Q 1134 2591 1072 2394 
Q 978 2094 978 1738 
L 978 0 
L 416 0 
z
" transform="scale(0.015625)"/>
       <path id="ArialMT-61" d="M 2588 409 
Q 2275 144 1986 34 
Q 1697 -75 1366 -75 
Q 819 -75 525 192 
Q 231 459 231 875 
Q 231 1119 342 1320 
Q 453 1522 633 1644 
Q 813 1766 1038 1828 
Q 1203 1872 1538 1913 
Q 2219 1994 2541 2106 
Q 2544 2222 2544 2253 
Q 2544 2597 2384 2738 
Q 2169 2928 1744 2928 
Q 1347 2928 1158 2789 
Q 969 2650 878 2297 
L 328 2372 
Q 403 2725 575 2942 
Q 747 3159 1072 3276 
Q 1397 3394 1825 3394 
Q 2250 3394 2515 3294 
Q 2781 3194 2906 3042 
Q 3031 2891 3081 2659 
Q 3109 2516 3109 2141 
L 3109 1391 
Q 3109 606 3145 398 
Q 3181 191 3288 0 
L 2700 0 
Q 2613 175 2588 409 
z
M 2541 1666 
Q 2234 1541 1622 1453 
Q 1275 1403 1131 1340 
Q 988 1278 909 1158 
Q 831 1038 831 891 
Q 831 666 1001 516 
Q 1172 366 1500 366 
Q 1825 366 2078 508 
Q 2331 650 2450 897 
Q 2541 1088 2541 1459 
L 2541 1666 
z
" transform="scale(0.015625)"/>
       <path id="ArialMT-69" d="M 425 3934 
L 425 4581 
L 988 4581 
L 988 3934 
L 425 3934 
z
M 425 0 
L 425 3319 
L 988 3319 
L 988 0 
L 425 0 
z
" transform="scale(0.015625)"/>
       <path id="ArialMT-6e" d="M 422 0 
L 422 3319 
L 928 3319 
L 928 2847 
Q 1294 3394 1984 3394 
Q 2284 3394 2536 3286 
Q 2788 3178 2913 3003 
Q 3038 2828 3088 2588 
Q 3119 2431 3119 2041 
L 3119 0 
L 2556 0 
L 2556 2019 
Q 2556 2363 2490 2533 
Q 2425 2703 2258 2804 
Q 2091 2906 1866 2906 
Q 1506 2906 1245 2678 
Q 984 2450 984 1813 
L 984 0 
L 422 0 
z
" transform="scale(0.015625)"/>
      </defs>
      <use xlink:href="#ArialMT-54"/>
      <use xlink:href="#ArialMT-72" x="57.333984"/>
      <use xlink:href="#ArialMT-61" x="90.634766"/>
      <use xlink:href="#ArialMT-69" x="146.25"/>
      <use xlink:href="#ArialMT-6e" x="168.466797"/>
     </g>
    </g>
    <g id="line2d_28">
     <path d="M 407.915 66.166875 
L 429.915 66.166875 
L 451.915 66.166875 
" style="fill: none; stroke: #ff7f0e; stroke-width: 3; stroke-linecap: round"/>
     <g>
      <use xlink:href="#m4535ac1cc9" x="429.915" y="66.166875" style="fill: #ff7f0e; stroke: #ff7f0e; stroke-linejoin: miter"/>
     </g>
    </g>
    <g id="text_12">
     <!-- Valid -->
     <g style="fill: #262626" transform="translate(469.515 73.866875) scale(0.22 -0.22)">
      <defs>
       <path id="ArialMT-56" d="M 1803 0 
L 28 4581 
L 684 4581 
L 1875 1253 
Q 2019 853 2116 503 
Q 2222 878 2363 1253 
L 3600 4581 
L 4219 4581 
L 2425 0 
L 1803 0 
z
" transform="scale(0.015625)"/>
       <path id="ArialMT-6c" d="M 409 0 
L 409 4581 
L 972 4581 
L 972 0 
L 409 0 
z
" transform="scale(0.015625)"/>
       <path id="ArialMT-64" d="M 2575 0 
L 2575 419 
Q 2259 -75 1647 -75 
Q 1250 -75 917 144 
Q 584 363 401 755 
Q 219 1147 219 1656 
Q 219 2153 384 2558 
Q 550 2963 881 3178 
Q 1213 3394 1622 3394 
Q 1922 3394 2156 3267 
Q 2391 3141 2538 2938 
L 2538 4581 
L 3097 4581 
L 3097 0 
L 2575 0 
z
M 797 1656 
Q 797 1019 1065 703 
Q 1334 388 1700 388 
Q 2069 388 2326 689 
Q 2584 991 2584 1609 
Q 2584 2291 2321 2609 
Q 2059 2928 1675 2928 
Q 1300 2928 1048 2622 
Q 797 2316 797 1656 
z
" transform="scale(0.015625)"/>
      </defs>
      <use xlink:href="#ArialMT-56"/>
      <use xlink:href="#ArialMT-61" x="59.324219"/>
      <use xlink:href="#ArialMT-6c" x="114.939453"/>
      <use xlink:href="#ArialMT-69" x="137.15625"/>
      <use xlink:href="#ArialMT-64" x="159.373047"/>
     </g>
    </g>
   </g>
  </g>
 </g>
 <defs>
  <clipPath id="pf4605d0964">
   <rect x="92.20875" y="7.2" width="446.4" height="332.64"/>
  </clipPath>
 </defs>
</svg>
